<svg width="980" height="551" xmlns="http://www.w3.org/2000/svg" xmlns:xlink="http://www.w3.org/1999/xlink">
<path fill="#ff595e" d="M 387.29 311.22 Q 387.29 311.22 382.62 313.92 377.96 316.62 353.82 325.88 329.69 335.14 304.59 345.10 279.49 355.06 262.38 362.37 245.27 369.68 227.34 379.22 209.41 388.76 196.72 397.61 184.02 406.47 177.61 411.55 171.19 416.62 168.34 419.19 165.50 421.76 164.23 423.35 162.96 424.94 162.25 426.12 161.54 427.30 178.72 431.35 195.90 435.40 225.79 437.61 255.67 439.81 277.34 440.17 299.00 440.52 330.18 438.47 361.37 436.42 395.92 432.47 430.46 428.52 462.45 423.17 494.43 417.82 516.13 414.22 537.83 410.63 559.55 407.19 581.26 403.75 596.80 401.11 612.33 398.47 619.82 397.21 627.31 395.94 631.61 394.97 635.92 394.00 638.82 393.43 641.73 392.86 643.36 392.48 644.99 392.10 646.62 391.79 648.24 391.47 649.48 391.19 650.72 390.92 652.17 390.65 653.62 390.38 654.60 390.13 655.58 389.89 657.53 388.98 659.49 388.08 660.56 387.73 661.64 387.38 662.85 386.42 664.07 385.47 664.77 384.55 665.47 383.63 666.37 381.41 667.26 379.19 658.15 364.43 649.04 349.68 634.27 334.85 619.50 320.02 596.62 307.03 573.74 294.05 556.71 287.35 539.67 280.65 530.40 277.80 521.12 274.95 516.17 273.75 511.23 272.54 507.27 271.89 503.31 271.24 499.30 270.82 495.29 270.39 492.28 270.22 489.28 270.04 485.67 269.96 482.06 269.88 478.72 269.70 475.37 269.52 472.96 269.45 470.54 269.37 468.84 269.19 467.14 269.00 465.20 268.93 463.26 268.86 461.10 268.83 458.95 268.80 457.30 268.78 455.64 268.77 453.24 268.91 450.84 269.05 448.47 269.53 446.09 270.01 444.67 270.73 443.24 271.45 440.49 272.82 437.74 274.18 434.65 276.44 431.56 278.70 429.36 280.53 427.16 282.37 424.96 284.70 422.77 287.04 421.09 288.92 419.40 290.81 418.29 292.29 417.18 293.77 416.56 294.68 415.95 295.59 415.23 296.63 414.51 297.67 413.85 298.73 413.19 299.79 412.28 300.73 411.36 301.67 409.44 302.31 407.52 302.96 406.27 303.12 405.03 303.28 403.46 303.62 401.90 303.96 399.26 303.67 396.63 303.38 396.63 303.38 396.63 303.37 396.62 303.37 396.62 303.36 398.84 301.70 401.06 300.04 402.80 299.68 404.54 299.31 405.53 299.20 406.53 299.08 408.15 298.61 409.76 298.14 410.43 296.86 411.10 295.59 411.87 294.47 412.64 293.35 413.31 292.36 413.98 291.37 415.20 289.76 416.42 288.15 418.14 286.22 419.86 284.29 422.23 281.80 424.60 279.30 426.90 277.38 429.21 275.46 432.58 273.03 435.96 270.60 438.73 269.23 441.50 267.85 443.39 266.97 445.28 266.10 447.94 265.57 450.61 265.05 453.14 264.91 455.68 264.77 457.34 264.78 459.01 264.80 461.21 264.83 463.41 264.86 465.49 264.94 467.58 265.03 469.12 265.20 470.67 265.37 473.13 265.45 475.59 265.53 478.87 265.71 482.15 265.89 485.83 265.96 489.52 266.04 492.61 266.23 495.71 266.42 499.83 266.85 503.96 267.29 508.07 267.97 512.18 268.65 517.24 269.89 522.29 271.13 531.72 274.03 541.14 276.93 558.43 283.75 575.71 290.57 599.01 303.87 622.31 317.17 637.38 332.39 652.46 347.60 661.71 363.44 670.97 379.29 670.42 381.47 669.87 383.66 669.23 384.90 668.59 386.14 667.50 387.42 666.41 388.70 665.51 389.27 664.60 389.85 663.24 390.70 661.89 391.56 660.48 392.02 659.08 392.48 657.82 393.12 656.57 393.76 655.46 394.03 654.35 394.31 652.97 394.57 651.58 394.83 650.29 395.11 649.01 395.39 647.45 395.70 645.90 396.00 644.20 396.39 642.50 396.79 639.65 397.35 636.79 397.90 632.38 398.89 627.97 399.88 620.49 401.15 613.00 402.42 597.44 405.06 581.89 407.70 560.19 411.13 538.48 414.57 516.79 418.17 495.09 421.77 463.00 427.13 430.91 432.49 396.27 436.45 361.63 440.42 330.28 442.47 298.93 444.52 277.16 444.16 255.38 443.80 225.24 441.56 195.09 439.32 177.64 435.61 160.19 431.90 159.19 430.85 158.19 429.80 157.88 428.49 157.57 427.19 158.07 425.75 158.57 424.30 159.21 423.36 159.85 422.42 161.33 420.61 162.82 418.80 165.76 416.14 168.71 413.48 175.22 408.34 181.74 403.19 194.63 394.21 207.53 385.23 225.62 375.62 243.70 366.00 260.86 358.67 278.02 351.34 303.14 341.38 328.26 331.41 352.44 322.13 376.63 312.85 381.95 312.02 387.28 311.20 387.28 311.21 Z" data-drauu_index="0"></path>
</svg>